<?xml version="1.0" standalone="no"?>
<!DOCTYPE svg PUBLIC "-//W3C//DTD SVG 20010904//EN"
 "http://www.w3.org/TR/2001/REC-SVG-20010904/DTD/svg10.dtd">
<svg version="1.0" xmlns="http://www.w3.org/2000/svg"
 width="349.000000pt" height="349.000000pt" viewBox="0 0 349.000000 349.000000"
 preserveAspectRatio="xMidYMid meet">
<metadata>
Created by potrace 1.11, written by Peter Selinger 2001-2013
</metadata>
<g transform="translate(0.000000,349.000000) scale(0.100000,-0.100000)"
fill="#000000" stroke="none">
<path d="M1702 2953 c0 -60 -1 -113 -1 -119 -1 -10 -88 -30 -96 -22 -2 2 -15
48 -29 103 -15 55 -28 105 -31 112 -3 8 -14 8 -44 1 -23 -6 -41 -13 -41 -17 0
-3 13 -55 30 -115 16 -61 28 -111 27 -111 -10 -7 -90 -35 -92 -33 -1 2 -26 45
-55 96 -29 51 -57 95 -61 98 -11 6 -69 -27 -69 -39 0 -5 25 -52 55 -105 l55
-97 -37 -31 -38 -32 -83 81 c-46 45 -85 83 -86 85 -2 2 -17 -10 -33 -25 l-29
-28 84 -86 85 -87 -33 -41 c-22 -27 -37 -38 -44 -32 -13 11 -186 111 -192 111
-2 0 -12 -17 -23 -38 l-19 -38 103 -58 103 -59 -19 -41 c-10 -22 -24 -42 -31
-43 -7 -2 -58 10 -113 26 l-100 28 -12 -26 c-18 -39 -15 -59 10 -66 12 -3 38
-10 57 -15 130 -35 150 -42 144 -51 -3 -6 -6 -26 -6 -45 0 -19 -3 -35 -6 -36
-4 0 -55 -2 -113 -3 -58 -1 -110 -5 -116 -8 -5 -3 -9 -23 -8 -44 l1 -38 114
-1 c63 -1 117 -2 120 -3 3 0 7 -17 8 -37 2 -20 4 -41 5 -46 2 -7 -106 -45
-156 -55 -70 -14 -69 -13 -62 -51 4 -20 9 -40 11 -43 4 -8 35 -1 147 30 76 22
97 21 97 -2 0 -7 6 -24 14 -38 14 -27 13 -27 -68 -74 -133 -78 -127 -74 -117
-93 33 -60 30 -60 135 1 54 31 101 57 105 57 5 0 16 -12 26 -26 17 -27 17 -27
-28 -68 -25 -22 -87 -80 -139 -127 -177 -165 -203 -187 -209 -183 -11 6 -240
62 -289 70 -95 15 -285 27 -309 19 -51 -16 -27 -75 98 -235 513 -661 1410
-887 2188 -551 316 136 630 404 797 680 40 65 41 95 5 106 -19 6 -164 0 -236
-10 -18 -3 -49 -7 -70 -10 -57 -8 -162 -32 -234 -53 l-65 -20 -50 47 c-28 25
-99 91 -159 146 -187 173 -178 162 -158 190 22 30 30 28 138 -36 47 -28 90
-47 95 -44 6 3 17 19 25 35 17 33 23 27 -101 100 l-91 53 20 41 c11 23 21 42
22 44 2 2 29 -4 61 -13 63 -18 130 -34 153 -38 8 -1 19 14 27 36 16 45 21 41
-123 78 -101 26 -101 26 -87 95 l6 29 118 0 118 0 -1 44 -2 44 -117 0 c-65 0
-118 2 -118 6 -1 3 -4 25 -9 47 l-8 42 71 20 c39 12 90 26 114 32 45 11 51 25
33 73 l-10 25 -103 -29 c-57 -15 -108 -28 -114 -29 -10 0 -44 61 -44 80 0 5
44 34 98 66 53 31 98 58 100 59 3 3 -38 75 -43 75 -1 0 -45 -25 -96 -55 -52
-30 -99 -55 -105 -55 -12 0 -54 54 -54 71 0 7 36 48 80 92 l81 81 -31 30 -30
31 -84 -84 -85 -84 -41 27 -41 27 32 57 c18 31 35 62 40 67 4 6 16 27 27 47
l21 37 -35 22 c-20 12 -39 18 -44 13 -5 -5 -32 -49 -60 -99 -29 -49 -53 -91
-55 -93 -1 -1 -23 6 -48 17 -45 20 -46 20 -36 53 15 51 49 180 49 189 0 4 -15
11 -32 15 -44 11 -53 11 -53 -1 0 -5 -13 -57 -29 -113 l-29 -104 -30 6 c-16 3
-38 6 -48 6 -18 0 -19 9 -19 120 l0 120 -44 0 -44 0 0 -107z"/>
</g>
</svg>
